<svg width="37" height="37" viewBox="0 0 37 37" fill="none" xmlns="http://www.w3.org/2000/svg">
<path fill-rule="evenodd" clip-rule="evenodd" d="M3.08333 6.16667H33.9167C35.6195 6.16667 37 4.78621 37 3.08333C37 1.38046 35.6195 0 33.9167 0H3.08333C1.38046 0 0 1.38046 0 3.08333C0 4.78621 1.38046 6.16667 3.08333 6.16667Z" fill="black"/>
<path fill-rule="evenodd" clip-rule="evenodd" d="M33.9167 15.4167H3.08333C1.38046 15.4167 0 16.7971 0 18.5C0 20.2029 1.38046 21.5833 3.08333 21.5833H33.9167C35.6195 21.5833 37 20.2029 37 18.5C37 16.7971 35.6195 15.4167 33.9167 15.4167Z" fill="black"/>
<path fill-rule="evenodd" clip-rule="evenodd" d="M33.9167 30.8333H3.08333C1.38046 30.8333 0 32.2138 0 33.9167C0 35.6195 1.38046 37 3.08333 37H33.9167C35.6195 37 37 35.6195 37 33.9167C37 32.2138 35.6195 30.8333 33.9167 30.8333Z" fill="black"/>
</svg>
