<svg width="15" height="17" viewBox="0 0 15 17" fill="none" xmlns="http://www.w3.org/2000/svg">
<path fill-rule="evenodd" clip-rule="evenodd" d="M1.24316 0.714294H13.2432C13.7954 0.714294 14.2432 1.16201 14.2432 1.71429V15.7143C14.2432 16.2666 13.7954 16.7143 13.2432 16.7143H1.24316C0.690879 16.7143 0.243164 16.2666 0.243164 15.7143V1.71429C0.243164 1.16201 0.690879 0.714294 1.24316 0.714294ZM2.24316 14.7143H12.2432V2.71429H2.24316V14.7143Z" fill="white"/>
<path fill-rule="evenodd" clip-rule="evenodd" d="M5.24316 6.71429H9.24316C9.79545 6.71429 10.2432 6.26658 10.2432 5.71429C10.2432 5.16201 9.79545 4.71429 9.24316 4.71429H5.24316C4.69088 4.71429 4.24316 5.16201 4.24316 5.71429C4.24316 6.26658 4.69088 6.71429 5.24316 6.71429Z" fill="white"/>
<path fill-rule="evenodd" clip-rule="evenodd" d="M5.24316 10.7143H9.24316C9.79545 10.7143 10.2432 10.2666 10.2432 9.71429C10.2432 9.16201 9.79545 8.71429 9.24316 8.71429H5.24316C4.69088 8.71429 4.24316 9.16201 4.24316 9.71429C4.24316 10.2666 4.69088 10.7143 5.24316 10.7143Z" fill="white"/>
</svg>
