<svg width="30" height="30" viewBox="0 0 30 30" fill="none" xmlns="http://www.w3.org/2000/svg">
<path fill-rule="evenodd" clip-rule="evenodd" d="M23.4375 3H7.8125C6.94955 3 6.25 3.69956 6.25 4.5625V9.25H1.5625C0.699555 9.25 0 9.94955 0 10.8125V23.3125C0.00284174 25.9002 2.09984 27.9972 4.6875 28H20.3125C22.9002 27.9972 24.9972 25.9002 25 23.3125V4.5625C25 3.69956 24.3004 3 23.4375 3ZM3.125 12.375H6.25V23.3125C6.25 24.1754 5.55045 24.875 4.6875 24.875C3.82456 24.875 3.125 24.1754 3.125 23.3125V12.375ZM20.3125 24.875C21.1748 24.8734 21.8734 24.1748 21.875 23.3125V6.125H9.375V23.3125C9.36979 23.846 9.27242 24.3746 9.08719 24.875H20.3125Z" fill="white"/>
<path fill-rule="evenodd" clip-rule="evenodd" d="M14.0625 12.375H17.1875C18.0504 12.375 18.75 11.6754 18.75 10.8125C18.75 9.94955 18.0504 9.25 17.1875 9.25H14.0625C13.1996 9.25 12.5 9.94955 12.5 10.8125C12.5 11.6754 13.1996 12.375 14.0625 12.375Z" fill="white"/>
<path fill-rule="evenodd" clip-rule="evenodd" d="M17.1875 15.5H14.0625C13.1996 15.5 12.5 16.1996 12.5 17.0625C12.5 17.9254 13.1996 18.625 14.0625 18.625H17.1875C18.0504 18.625 18.75 17.9254 18.75 17.0625C18.75 16.1996 18.0504 15.5 17.1875 15.5Z" fill="white"/>
</svg>
