<svg width="40" height="40" viewBox="0 0 40 40" fill="none" xmlns="http://www.w3.org/2000/svg">
<path fill-rule="evenodd" clip-rule="evenodd" d="M30.275 23.5102C31.4248 21.9112 31.5759 19.8449 30.6697 18.1097C29.7636 16.3744 27.9422 15.2418 25.9092 15.1495C23.8761 15.0572 21.9498 16.0196 20.8743 17.6649C20.3159 17.1626 19.6948 16.7275 19.025 16.3693C20.6203 14.1379 20.2221 11.1248 18.0959 9.3392C15.9698 7.5536 12.7802 7.5536 10.6541 9.3392C8.52793 11.1248 8.12973 14.1379 9.725 16.3693C6.81336 17.9454 5.01063 20.8849 5 24.0738C5 25.0598 5.83947 25.8591 6.875 25.8591H18.1717C16.9321 27.3956 16.2569 29.2773 16.25 31.2148C16.25 32.2007 17.0895 33 18.125 33H33.125C34.1605 33 35 32.2007 35 31.2148C34.9894 28.0258 33.1866 25.0863 30.275 23.5102ZM25.625 18.7182C26.6605 18.7182 27.5 19.5174 27.5 20.5034C27.5 21.4893 26.6605 22.2886 25.625 22.2886C24.5895 22.2886 23.75 21.4893 23.75 20.5034C23.752 19.5182 24.5903 18.72 25.625 18.7182ZM14.375 11.5772C13.3395 11.5772 12.5 12.3765 12.5 13.3625C12.502 14.3476 13.3403 15.1458 14.375 15.1477C15.4105 15.1477 16.25 14.3484 16.25 13.3625C16.25 12.3765 15.4105 11.5772 14.375 11.5772ZM14.375 18.7182C16.758 18.7199 18.8818 20.15 19.6776 22.2886H9.07227C9.86814 20.15 11.9919 18.7199 14.375 18.7182ZM25.625 25.8607C23.2418 25.8607 21.1174 27.2905 20.3223 29.4295H30.9276C30.1325 27.2905 28.0081 25.8607 25.625 25.8607Z" fill="white"/>
</svg>
